<svg width="60" height="57" viewBox="0 0 60 57" fill="none" xmlns="http://www.w3.org/2000/svg">
<path fill-rule="evenodd" clip-rule="evenodd" d="M49 7H50.586L53 9.414V11C53 11.552 53.448 12 54 12C54.552 12 55 11.552 55 11V9.414L57.414 7H59C59.552 7 60 6.552 60 6C60 5.448 59.552 5 59 5H57.414L55 2.586V1C55 0.448 54.552 0 54 0C53.448 0 53 0.448 53 1V2.586L50.586 5H49C48.448 5 48 5.448 48 6C48 6.552 48.448 7 49 7ZM54 4.414L55.586 6L54 7.586L52.414 6L54 4.414Z" fill="white"/>
<path fill-rule="evenodd" clip-rule="evenodd" d="M35 29C34.448 29 34 29.448 34 30C34 30.552 34.448 31 35 31C35.552 31 36 30.552 36 30C36 29.448 35.552 29 35 29Z" fill="white"/>
<path fill-rule="evenodd" clip-rule="evenodd" d="M26 31C26 31.552 26.448 32 27 32C27.552 32 28 31.552 28 31C28 30.448 27.552 30 27 30C26.448 30 26 30.448 26 31Z" fill="white"/>
<path fill-rule="evenodd" clip-rule="evenodd" d="M25 32C24.448 32 24 32.448 24 33C24 33.552 24.448 34 25 34C25.552 34 26 33.552 26 33C26 32.448 25.552 32 25 32Z" fill="white"/>
<path fill-rule="evenodd" clip-rule="evenodd" d="M37 31C36.448 31 36 31.448 36 32C36 32.552 36.448 33 37 33C37.552 33 38 32.552 38 32C38 31.448 37.552 31 37 31Z" fill="white"/>
<path fill-rule="evenodd" clip-rule="evenodd" d="M30.467 33.973C30.314 33.991 30.158 34 30 34C29.448 34 29 34.448 29 35C29 35.552 29.448 36 30 36C30.237 36 30.47 35.986 30.699 35.96C32.552 35.745 33.77 34.272 33.66 32.377C33.576 30.932 32.644 29.478 31 29.1V27C31 26.448 30.552 26 30 26C29.448 26 29 26.448 29 27V30C29 30.552 29.448 31 30 31H30.154C31.277 31 31.631 31.938 31.663 32.493C31.676 32.715 31.679 33.833 30.467 33.973Z" fill="white"/>
<path fill-rule="evenodd" clip-rule="evenodd" d="M31 40H29C28.448 40 28 40.448 28 41C28 41.552 28.448 42 29 42H31C31.552 42 32 41.552 32 41C32 40.448 31.552 40 31 40Z" fill="white"/>
<path fill-rule="evenodd" clip-rule="evenodd" d="M33 37H27C26.448 37 26 37.448 26 38C26 38.552 26.448 39 27 39H33C33.552 39 34 38.552 34 38C34 37.448 33.552 37 33 37Z" fill="white"/>
<path fill-rule="evenodd" clip-rule="evenodd" d="M21.5 24C20.672 24 20 24.672 20 25.5C20 26.328 20.672 27 21.5 27C22.328 27 23 26.328 23 25.5C23 24.672 22.328 24 21.5 24Z" fill="white"/>
<path fill-rule="evenodd" clip-rule="evenodd" d="M38.5 24C37.672 24 37 24.672 37 25.5C37 26.328 37.672 27 38.5 27C39.328 27 40 26.328 40 25.5C40 24.672 39.328 24 38.5 24Z" fill="white"/>
<path fill-rule="evenodd" clip-rule="evenodd" d="M50 30V28C50 27.448 49.552 27 49 27C48.448 27 48 27.448 48 28V30C48 30.552 48.448 31 49 31C49.552 31 50 30.552 50 30Z" fill="white"/>
<path fill-rule="evenodd" clip-rule="evenodd" d="M11 31C11.552 31 12 30.552 12 30V28C12 27.448 11.552 27 11 27C10.448 27 10 27.448 10 28V30C10 30.552 10.448 31 11 31Z" fill="white"/>
<path fill-rule="evenodd" clip-rule="evenodd" d="M26 20C26.552 20 27 19.552 27 19C27 18.448 26.552 18 26 18H20C19.448 18 19 18.448 19 19C19 19.552 19.448 20 20 20H26Z" fill="white"/>
<path fill-rule="evenodd" clip-rule="evenodd" d="M40 18H34C33.448 18 33 18.448 33 19C33 19.552 33.448 20 34 20H40C40.552 20 41 19.552 41 19C41 18.448 40.552 18 40 18Z" fill="white"/>
<path fill-rule="evenodd" clip-rule="evenodd" d="M58 26.012V24.122C58 22.606 56.929 21.282 55.508 21.043C54.908 20.943 54.342 21.038 53.838 21.252C52.469 9.308 42.304 0 30 0C17.697 0 7.531 9.308 6.162 21.251C5.658 21.038 5.092 20.943 4.492 21.043C3.071 21.282 2 22.606 2 24.122V26.072C0.854 26.348 0 27.381 0 28.61V31.779C0 32.929 0.878 33.878 2 33.989V35.878C2 37.395 3.071 38.718 4.492 38.958C4.664 38.986 4.834 39 5 39C5.347 39 5.682 38.931 6 38.817V41.354L6.296 41.647C6.883 42.228 7.505 42.777 8.143 43.308V49.889L8.44 50.182C13.075 54.77 20.133 57 30.016 57C39.571 57 46.133 55.109 50.667 51.051L51 50.752V44.733C51.933 44.074 52.827 43.372 53.667 42.621L54 42.322V38.816C54.314 38.928 54.648 39 55 39C55.167 39 55.336 38.986 55.508 38.958C56.929 38.718 58 37.395 58 35.878V33.989C59.122 33.878 60 32.929 60 31.779V28.221C60 27.074 59.127 26.127 58 26.012ZM4.71 30.71C4.52 30.89 4.26 31 4 31C3.74 31 3.48 30.89 3.29 30.71C3.11 30.52 3 30.26 3 30C3 29.74 3.11 29.48 3.29 29.29C3.66 28.92 4.33 28.92 4.71 29.29C4.89 29.48 5 29.74 5 30C5 30.26 4.89 30.52 4.71 30.71ZM51.534 19.491C50.476 18.032 49.11 16.681 47.505 15.481L47.497 15.447L47.185 15.221C46.805 14.947 46.397 14.697 45.995 14.442C45.979 14.432 45.963 14.421 45.947 14.411C45.404 14.068 44.842 13.747 44.263 13.441C44.217 13.417 44.172 13.392 44.126 13.367C43.609 13.099 43.08 12.847 42.539 12.608C42.382 12.539 42.226 12.47 42.068 12.403C41.63 12.219 41.188 12.046 40.737 11.883C40.417 11.766 40.094 11.654 39.766 11.547C39.533 11.472 39.305 11.391 39.069 11.32C39.402 8.902 41.451 7.028 43.954 7.005C47.754 10.13 50.49 14.503 51.534 19.491ZM45 33.544C45 37.346 44.419 40.145 41.662 41.417L41.323 41.542C41.238 41.565 41.152 41.587 41.066 41.61C40.28 41.813 39.495 41.999 38.711 42.157C38.679 42.164 38.647 42.169 38.615 42.175C37.811 42.336 37.008 42.472 36.207 42.585C36.156 42.592 36.106 42.6 36.056 42.607C35.217 42.722 34.38 42.813 33.543 42.876C33.538 42.876 33.532 42.877 33.527 42.877C32.685 42.941 31.845 42.977 31.006 42.989C30.989 42.989 30.973 42.99 30.957 42.99C29.318 43.01 27.682 42.927 26.046 42.752C25.897 42.736 25.75 42.718 25.602 42.7C24.884 42.615 24.167 42.515 23.449 42.393C23.382 42.381 23.312 42.372 23.244 42.36C22.439 42.219 21.634 42.054 20.828 41.866C20.795 41.858 20.762 41.85 20.728 41.842L18.447 40.909C16.031 39.701 15 37.374 15 33.126V23.534L20.658 16.07C21.044 15.562 21.75 15.359 22.311 15.61C24.357 16.533 27.163 17 30.65 17C34.137 17 36.92 16.531 38.922 15.607C39.487 15.346 40.181 15.562 40.519 16.089L44.984 23.037L45 33.544ZM16.046 7.005C18.55 7.028 20.599 8.903 20.932 11.323C20.589 11.425 20.254 11.536 19.918 11.649C19.731 11.712 19.548 11.779 19.364 11.846C17.182 12.628 15.153 13.645 13.348 14.875C13.278 14.923 13.208 14.969 13.139 15.017C12.922 15.168 12.691 15.307 12.481 15.464L12.132 15.725L12.128 15.765C10.682 16.893 9.442 18.145 8.466 19.491C9.51 14.503 12.246 10.13 16.046 7.005ZM11 26H13V32H11C9.346 32 8 30.654 8 29C8 27.346 9.346 26 11 26ZM52 41.424C51.318 42.014 50.602 42.572 49.857 43.099L49.623 43.259C49.542 43.315 49.458 43.369 49.376 43.424C48.118 44.279 46.777 45.039 45.375 45.707C45.289 45.748 45.204 45.791 45.117 45.831C44.465 46.134 43.799 46.414 43.122 46.675C42.991 46.726 42.859 46.776 42.726 46.825C42.049 47.076 41.362 47.311 40.663 47.52C40.564 47.55 40.463 47.575 40.363 47.604C39.683 47.801 38.995 47.979 38.298 48.135C38.22 48.153 38.144 48.173 38.066 48.19C37.341 48.347 36.606 48.477 35.866 48.589C35.723 48.611 35.58 48.633 35.436 48.653C34.706 48.754 33.971 48.835 33.231 48.891C33.1 48.901 32.968 48.907 32.837 48.916C32.061 48.967 31.282 49 30.5 49C29.98 49 29.461 48.987 28.945 48.966C28.803 48.96 28.662 48.948 28.52 48.94C28.142 48.92 27.765 48.897 27.39 48.865C27.237 48.852 27.085 48.834 26.932 48.819C26.566 48.783 26.201 48.745 25.839 48.698C25.693 48.679 25.549 48.657 25.404 48.637C25.031 48.584 24.66 48.527 24.29 48.462C24.161 48.44 24.032 48.416 23.903 48.392C23.517 48.32 23.133 48.242 22.752 48.158C22.641 48.134 22.53 48.109 22.419 48.084C22.016 47.99 21.615 47.89 21.218 47.782C21.131 47.759 21.044 47.737 20.958 47.713C20.525 47.593 20.096 47.464 19.671 47.327C19.62 47.311 19.569 47.296 19.519 47.28C18.088 46.813 16.704 46.253 15.379 45.608C15.208 45.525 15.041 45.435 14.872 45.349C14.625 45.223 14.378 45.097 14.135 44.965C13.908 44.841 13.685 44.712 13.462 44.583C13.286 44.481 13.109 44.38 12.935 44.274C12.685 44.123 12.438 43.966 12.193 43.807C12.054 43.718 11.915 43.628 11.778 43.536C11.52 43.362 11.265 43.185 11.013 43.003C10.893 42.917 10.774 42.83 10.655 42.742C10.403 42.555 10.154 42.365 9.908 42.17C9.246 41.643 8.606 41.095 8 40.514V39.021C10.601 40.486 14.827 42.495 20.187 43.77L20.211 43.778C20.223 43.781 20.234 43.783 20.246 43.786C21.019 43.968 21.819 44.132 22.638 44.28C22.787 44.307 22.937 44.33 23.086 44.356C23.72 44.464 24.365 44.559 25.024 44.643C25.23 44.669 25.436 44.695 25.642 44.718C26.251 44.786 26.871 44.84 27.499 44.884C27.695 44.898 27.892 44.917 28.088 44.928C28.879 44.972 29.681 45 30.5 45C31.356 45 32.193 44.965 33.022 44.914C33.21 44.903 33.398 44.89 33.586 44.875C35.421 44.739 37.182 44.492 38.856 44.162C38.926 44.148 38.996 44.135 39.066 44.121C39.992 43.934 40.89 43.724 41.759 43.495C41.794 43.485 41.828 43.48 41.863 43.47L41.904 43.455C46.062 42.343 49.523 40.824 52 39.537V41.424ZM49 32H47V26H49C50.654 26 52 27.346 52 29C52 30.654 50.654 32 49 32ZM56.71 30.71C56.52 30.89 56.26 31 56 31C55.74 31 55.48 30.89 55.29 30.71C55.11 30.52 55 30.26 55 30C55 29.74 55.11 29.48 55.29 29.29C55.66 28.92 56.34 28.92 56.71 29.29C56.89 29.48 57 29.74 57 30C57 30.26 56.89 30.52 56.71 30.71Z" fill="white"/>
</svg>
