<svg width="66" height="64" viewBox="0 0 66 64" fill="none" xmlns="http://www.w3.org/2000/svg">
<path d="M19.1361 50.3C10.6961 47.35 4.39611 40.03 2.87611 30.99C0.636107 17.98 8.97611 5.48 21.7761 2.54C28.6861 1.02 35.8961 2.34 41.6961 6.5C43.2161 7.52 44.6461 8.74 45.8661 10.16C46.0661 9.14 46.0661 8.23 45.9661 7.31C45.6661 4.87 43.2261 5.28 41.3961 5.79C40.2761 5.89 39.8761 4.77 40.6861 4.16C43.5361 2.53 51.1561 -1.73 54.0961 1.31C56.6361 4.05 53.8961 9.85 49.7261 15.84C51.2461 19.19 52.5761 24.07 52.2661 27.93C56.6361 26.3 61.2061 25.8 65.2761 27.32C65.7861 27.42 65.8861 27.73 65.8861 28.13C65.8861 36.56 58.5661 44.08 50.5461 48.66C51.3561 53.94 44.3461 57.91 40.0761 59.13C39.1661 59.43 38.9561 58.83 38.9561 58.22C38.9561 56.49 38.9561 54.77 39.0561 53.04C31.8461 56.7 20.6661 60.05 12.1261 60.05C-9.41389 60.05 4.30611 39.83 4.30611 39.83C4.81611 38.81 6.23611 39.63 5.82611 40.64C2.06611 49.18 5.21611 52.22 13.6461 51.31C15.3761 51.11 17.3061 50.81 19.1361 50.3ZM2.77611 48.87C2.77611 51.11 3.79611 53.04 6.43611 54.05C12.8361 56.49 26.3561 52.42 32.8561 49.48C32.5561 48.67 32.6561 47.65 33.2661 46.74C28.8961 49.18 20.5661 52.33 13.8561 53.14C9.78611 53.55 4.19611 53.35 2.77611 48.87ZM33.8661 51.01C26.8561 54.26 12.8361 58.43 5.81611 55.79C3.57611 54.98 2.25611 53.76 1.64611 52.23C2.05611 56.6 6.11611 58.33 12.1161 58.33C20.3461 58.33 31.3261 55.08 38.3361 51.42L38.1361 51.12L37.9361 51.32C36.4061 52.33 34.8861 52.02 33.8661 51.01ZM60.6961 1.72C60.6961 0.5 62.5261 0.5 62.5261 1.72C62.5261 2.94 60.6961 2.94 60.6961 1.72ZM53.3761 17.88C53.3761 16.66 55.2061 16.66 55.2061 17.88C55.2061 19.1 53.3761 19.1 53.3761 17.88ZM59.0661 10.36C60.4861 10.36 61.6061 11.58 61.6061 12.9C61.6061 14.32 60.4861 15.54 59.0661 15.54C57.6461 15.54 56.5261 14.32 56.5261 12.9C56.5261 11.58 57.6461 10.36 59.0661 10.36ZM59.0661 12.19C58.6561 12.19 58.3561 12.49 58.3561 12.9C58.3561 13.41 58.6561 13.71 59.0661 13.71C59.4761 13.71 59.8761 13.41 59.8761 12.9C59.8861 12.5 59.4761 12.19 59.0661 12.19ZM62.5261 61.98C62.5261 60.76 64.3561 60.76 64.3561 61.98C64.3561 63.1 62.5261 63.1 62.5261 61.98ZM41.1861 61.78C41.1861 60.66 43.0161 60.66 43.0161 61.78C43.0161 63 41.1861 63 41.1861 61.78ZM53.3761 58.12C54.7961 58.12 56.0161 59.24 56.0161 60.66C56.0161 62.08 54.7961 63.2 53.3761 63.2C52.0561 63.2 50.8361 62.08 50.8361 60.66C50.8361 59.24 51.9561 58.12 53.3761 58.12ZM53.3761 59.85C52.9661 59.85 52.6661 60.26 52.6661 60.66C52.6661 61.07 52.9661 61.47 53.3761 61.47C53.8861 61.47 54.1861 61.06 54.1861 60.66C54.1961 60.26 53.8861 59.85 53.3761 59.85ZM61.8161 46.44C61.8161 45.22 63.5461 45.22 63.5461 46.44C63.5361 47.55 61.8161 47.55 61.8161 46.44ZM2.26611 11.68C2.26611 10.46 4.09611 10.46 4.09611 11.68C4.09611 12.8 2.26611 12.8 2.26611 11.68ZM10.4961 2.74C10.4961 1.52 12.3261 1.52 12.3261 2.74C12.3261 3.96 10.4961 3.96 10.4961 2.74ZM4.09611 0C6.02611 0 7.54611 1.63 7.54611 3.46C7.54611 5.39 6.02611 6.91 4.09611 6.91C2.16611 6.91 0.636107 5.38 0.636107 3.45C0.636107 1.62 2.16611 0 4.09611 0ZM4.09611 1.83C3.18611 1.83 2.46611 2.54 2.46611 3.46C2.46611 4.37 3.17611 5.19 4.09611 5.19C5.01611 5.19 5.72611 4.38 5.72611 3.46C5.72611 2.54 5.00611 1.83 4.09611 1.83ZM58.4561 49.59C60.2861 49.59 61.8061 51.11 61.8061 53.05C61.8061 54.98 60.2861 56.5 58.4561 56.5C56.5261 56.5 55.0061 54.98 55.0061 53.05C55.0061 51.11 56.5261 49.59 58.4561 49.59ZM58.4561 51.42C57.4361 51.42 56.7261 52.13 56.7261 53.05C56.7261 53.96 57.4361 54.68 58.4561 54.68C59.3661 54.68 60.0861 53.97 60.0861 53.05C60.0861 52.13 59.3761 51.42 58.4561 51.42ZM20.0461 44.2C21.1661 44.61 20.4561 46.33 19.3361 45.83C18.6261 45.53 18.0161 45.22 17.3061 44.81C16.2861 44.3 17.2061 42.68 18.2161 43.29C18.8261 43.59 19.4361 43.9 20.0461 44.2ZM15.6761 41.56C16.5861 42.37 15.4761 43.69 14.5561 42.98C10.5961 39.83 7.84611 35.36 7.03611 30.28C6.83611 29.16 8.55611 28.86 8.76611 29.98C9.58611 34.55 12.0261 38.71 15.6761 41.56ZM26.1461 15.95C28.2761 15.95 29.9061 17.68 29.9061 19.81C29.9061 21.84 28.2761 23.57 26.1461 23.57C24.0161 23.57 22.2861 21.84 22.2861 19.81C22.2861 17.68 24.0161 15.95 26.1461 15.95ZM26.1461 17.68C25.0261 17.68 24.0161 18.59 24.0161 19.81C24.0161 20.93 25.0361 21.84 26.1461 21.84C27.2661 21.84 28.1761 20.93 28.1761 19.81C28.1761 18.59 27.2661 17.68 26.1461 17.68ZM37.3261 13.61C39.1561 13.61 40.6761 15.13 40.6761 16.96C40.6761 18.79 39.1561 20.31 37.3261 20.31C35.4961 20.31 34.0761 18.79 34.0761 16.96C34.0761 15.14 35.4961 13.61 37.3261 13.61ZM37.3261 15.44C36.5161 15.44 35.8061 16.05 35.8061 16.96C35.8061 17.77 36.5161 18.48 37.3261 18.48C38.1361 18.48 38.8461 17.77 38.8461 16.96C38.8461 16.15 38.2361 15.44 37.3261 15.44ZM30.6161 5.18C33.3561 5.18 35.5961 7.42 35.5961 10.16C35.5961 12.9 33.3561 15.14 30.6161 15.14C27.8761 15.14 25.6361 12.9 25.6361 10.16C25.6361 7.42 27.8761 5.18 30.6161 5.18ZM30.6161 6.91C28.7861 6.91 27.3661 8.43 27.3661 10.16C27.3661 11.99 28.7861 13.41 30.6161 13.41C32.3461 13.41 33.8661 11.99 33.8661 10.16C33.8661 8.43 32.3461 6.91 30.6161 6.91ZM45.2461 12.29C43.9261 10.56 42.3961 9.14 40.6761 7.92C35.1861 4.06 28.4861 2.84 22.0761 4.36C10.1961 7.11 2.57611 18.69 4.60611 30.79C6.23611 40.04 13.2461 47.35 22.3861 49.39C26.9561 47.97 31.2261 46.04 33.4661 44.61L33.3661 44.41C31.5361 43.9 29.7061 43.29 27.8761 42.68C27.2661 42.48 27.0661 41.66 27.4661 41.26C30.0061 37.6 36.1061 32.42 40.7761 34.96C43.6261 32.52 46.9761 30.29 50.3261 28.76C50.9361 25.51 49.8161 20.63 48.4961 17.48C43.3161 24.49 36.6061 31.4 34.3761 33.43C33.5661 34.24 32.3461 33.13 33.1561 32.21C36.2061 28.55 43.0161 19.2 45.2461 12.29ZM42.0961 22.76C44.6361 19.81 55.9161 5.89 52.7661 2.54C51.3461 1.02 46.6661 3.05 45.1461 3.86C46.6661 4.27 47.4861 5.49 47.7861 7.11C48.3961 11.58 44.3361 19.1 42.0961 22.76ZM35.7961 44.71L37.6261 43.49L36.6061 41.97C36.0961 42.58 35.5861 43.19 35.1861 43.8L35.7961 44.71ZM39.0561 42.47L41.4961 40.74C45.0561 38.2 48.8161 43.59 45.3561 46.02L42.9161 47.75L44.2361 49.68C51.2461 46.94 59.0761 41.45 62.4261 34.74L57.9561 28.34C50.4361 29.25 42.7161 34.84 37.7361 40.53L39.0561 42.47ZM41.3861 48.77L39.5561 50.09L40.2661 51C40.9761 50.8 41.6861 50.59 42.5061 50.29L41.3861 48.77ZM36.8161 49.79L44.2361 44.61C45.8661 43.49 44.1361 41.05 42.6061 42.17L35.1861 47.45C33.5661 48.47 35.1861 51.01 36.8161 49.79ZM60.0861 28.25L63.2361 32.82C63.7461 31.5 64.0461 30.18 64.0461 28.76C62.7261 28.45 61.4061 28.25 60.0861 28.25ZM39.3561 36.27C36.0061 35.15 31.5361 39.01 29.5961 41.35C31.0161 41.76 32.4461 42.26 33.8661 42.67C35.2961 40.54 37.1161 38.31 39.3561 36.27ZM40.8761 52.63C40.7761 54.15 40.7761 55.58 40.7761 57.1C43.5161 56.08 48.7061 53.14 48.8061 49.58C46.0661 51.01 43.4161 52.02 40.8761 52.63ZM57.3461 38C56.8361 40.85 54.1961 42.78 51.3461 42.27C48.4961 41.76 46.6761 39.12 47.0761 36.27C47.5861 33.42 50.3261 31.49 53.0761 32C55.9161 32.51 57.8461 35.16 57.3461 38ZM55.6161 37.7C55.9161 35.87 54.7061 34.14 52.7661 33.84C50.9361 33.43 49.2061 34.75 48.9061 36.58C48.6061 38.41 49.8161 40.24 51.6461 40.54C53.4761 40.85 55.3061 39.63 55.6161 37.7Z" fill="white"/>
</svg>
