<svg width="16" height="18" viewBox="0 0 16 18" fill="none" xmlns="http://www.w3.org/2000/svg">
<path d="M1.10189 3.21998C1.28189 3.21998 1.44189 3.17998 1.60189 3.09998L4.10189 4.05998C4.14189 4.71998 4.62189 5.27998 5.28189 5.41998L5.54189 6.91998C4.48189 7.57998 4.16189 8.95998 4.80189 10.02C5.08189 10.46 5.48189 10.8 5.98189 10.96V13.52C5.26189 13.92 5.00189 14.84 5.42189 15.56C5.82189 16.28 6.74189 16.54 7.46189 16.12C7.68189 16 7.86189 15.82 8.00189 15.6H11.0019C11.4419 16.76 12.7219 17.36 13.9019 16.92C15.0819 16.48 15.6619 15.2 15.2219 14.02C15.0219 13.5 14.6619 13.08 14.1819 12.82L14.7819 9.77998C15.3219 9.47998 15.5219 8.79998 15.2219 8.25998C14.9219 7.71998 14.2419 7.51998 13.7019 7.81998C13.5819 7.87998 13.4819 7.95998 13.4019 8.05998H8.86189C8.58189 7.25998 7.86189 6.67998 7.02189 6.55998L6.74189 4.91998C7.30189 4.29998 7.24189 3.35998 6.62189 2.79998C6.12189 2.35998 5.36189 2.29998 4.80189 2.65998L2.18189 1.65998C1.96189 1.07998 1.32189 0.779978 0.741888 0.979978C0.161888 1.17998 -0.138112 1.83998 0.0618876 2.41998C0.201888 2.91998 0.641888 3.21998 1.10189 3.21998ZM13.8619 14.84C13.8619 15.26 13.5219 15.6 13.1019 15.6C12.6819 15.6 12.3619 15.26 12.3619 14.84C12.3619 14.42 12.7019 14.08 13.1219 14.08C13.5419 14.08 13.8619 14.42 13.8619 14.84ZM7.50189 10.96C8.14189 10.74 8.64189 10.24 8.86189 9.59998H13.3019L12.7019 12.64C11.9019 12.78 11.2419 13.36 10.9819 14.14L8.06189 14.12C7.92189 13.88 7.74189 13.68 7.50189 13.56V10.96ZM6.72189 8.09998C7.14189 8.09998 7.48189 8.43998 7.48189 8.85998C7.48189 9.27998 7.14189 9.59998 6.72189 9.59998C6.30189 9.59998 5.96189 9.25998 5.96189 8.83998C5.98189 8.41998 6.32189 8.09998 6.72189 8.09998Z" fill="white"/>
</svg>
