<svg width="24" height="23" viewBox="0 0 24 23" fill="none" xmlns="http://www.w3.org/2000/svg">
<path d="M14.5447 17.906C12.3205 19.3248 9.98565 20.5621 7.56274 21.606C8.97135 22.4765 10.5963 22.9335 12.2522 22.9249C13.9081 22.9162 15.5282 22.4422 16.9276 21.5569C18.327 20.6717 19.4493 19.4108 20.1665 17.9183C20.8838 16.4258 21.1669 14.7617 20.9837 13.116C18.963 14.8749 16.8104 16.4762 14.5447 17.906Z" fill="white"/>
<path d="M23.5037 7.82203C23.5728 7.6018 23.6098 7.37279 23.6137 7.14203C23.6173 6.83381 23.5304 6.53132 23.3637 6.27203C22.6537 5.16203 20.9537 5.13203 18.0137 6.19203C17.6537 6.32203 17.2937 6.46203 16.9137 6.63203C15.5067 5.7459 13.878 5.2751 12.2151 5.27381C10.5523 5.27251 8.92285 5.74078 7.51441 6.62472C6.10596 7.50866 4.97573 8.77233 4.25381 10.2703C3.53189 11.7683 3.24763 13.4396 3.43373 15.092C1.14373 17.142 -0.676273 19.392 0.243727 20.842C0.391216 21.0662 0.585646 21.2556 0.813563 21.3972C1.04148 21.5388 1.29744 21.6291 1.56373 21.662C1.75611 21.6867 1.94978 21.7001 2.14373 21.702C3.33222 21.6348 4.50137 21.3713 5.60373 20.922C5.81373 20.842 6.04373 20.752 6.28373 20.652C6.45673 20.584 6.64773 20.494 6.82573 20.421C7.43906 20.1677 8.07606 19.8804 8.73673 19.559C9.84273 19.023 10.9927 18.411 12.1687 17.721C12.7127 17.402 13.2597 17.077 13.8067 16.732C16.2357 15.21 18.5319 13.4855 20.6707 11.577C21.0057 11.264 21.3257 10.948 21.6237 10.633C22.3323 9.93646 22.9179 9.12501 23.3557 8.23303C23.4134 8.09919 23.4629 7.96193 23.5037 7.82203ZM8.68073 12.09C9.27365 11.9553 9.8164 11.6556 10.2464 11.2257C10.6763 10.7957 10.976 10.253 11.1107 9.66003C11.2877 10.2817 11.6178 10.849 12.0707 11.31C12.5059 11.668 13.0095 11.9334 13.5507 12.09C12.9567 12.2282 12.4132 12.53 11.9819 12.9612C11.5507 13.3925 11.2489 13.936 11.1107 14.53C10.9274 13.7893 10.4971 13.1333 9.89073 12.67C9.5138 12.4259 9.10716 12.2309 8.68073 12.09ZM21.6007 7.39003C21.1496 8.24248 20.5502 9.00776 19.8307 9.65003C19.7907 9.56003 19.7307 9.48003 19.6807 9.39003C19.3825 8.91661 19.0374 8.47438 18.6507 8.07003C19.5832 7.65877 20.5853 7.42803 21.6037 7.39003H21.6007ZM3.97073 17.267C4.16448 17.8095 4.42302 18.3266 4.74073 18.807C4.79073 18.897 4.85073 18.977 4.90073 19.057C3.98477 19.4501 3.00618 19.6769 2.01073 19.727C2.5106 18.7957 3.1746 17.9623 3.97073 17.267Z" fill="white"/>
<path d="M2.90375 6.243C3.04097 5.65134 3.34114 5.10992 3.77027 4.68009C4.19939 4.25026 4.74031 3.9492 5.33175 3.811C4.74049 3.67278 4.19971 3.37183 3.77062 2.94221C3.34153 2.51258 3.04124 1.97144 2.90375 1.38C2.76582 1.97238 2.46453 2.5142 2.0341 2.94392C1.60367 3.37365 1.06135 3.67405 0.46875 3.811C1.06148 3.94804 1.60388 4.24859 2.03432 4.6785C2.46477 5.10841 2.76598 5.65045 2.90375 6.243Z" fill="white"/>
<path d="M15.9277 3.694C16.0323 3.24433 16.2607 2.83295 16.5872 2.5065C16.9136 2.18005 17.325 1.95158 17.7747 1.847C17.325 1.74242 16.9136 1.51395 16.5872 1.1875C16.2607 0.861047 16.0323 0.44967 15.9277 0C15.8231 0.44967 15.5946 0.861047 15.2682 1.1875C14.9417 1.51395 14.5304 1.74242 14.0807 1.847C14.5304 1.95158 14.9417 2.18005 15.2682 2.5065C15.5946 2.83295 15.8231 3.24433 15.9277 3.694Z" fill="white"/>
</svg>
