<svg width="91" height="91" viewBox="0 0 91 91" fill="none" xmlns="http://www.w3.org/2000/svg">
<path d="M7.20005 62.2C6.70005 62.2 6.30005 62.6 6.30005 63.1C6.30005 63.6 6.70005 64 7.20005 64C7.70005 64 8.10005 63.6 8.10005 63.1C8.10005 62.6 7.70005 62.2 7.20005 62.2Z" fill="white"/>
<path d="M8.9 30.9C9.4 30.9 9.8 30.5 9.8 30C9.8 29.5 9.4 29.1 8.9 29.1C8.4 29.1 8 29.5 8 30C8 30.5 8.4 30.9 8.9 30.9Z" fill="white"/>
<path d="M81.2001 59.9C80.7001 59.9 80.3 60.3 80.3 60.8C80.3 61.3 80.7001 61.7 81.2001 61.7C81.7001 61.7 82.1001 61.3 82.1001 60.8C82.1001 60.3 81.7001 59.9 81.2001 59.9Z" fill="white"/>
<path d="M77.1 6.3C77.6 6.3 78 5.9 78 5.4C78 4.9 77.6 4.5 77.1 4.5C76.6 4.5 76.2 4.9 76.2 5.4C76.2 5.9 76.6 6.3 77.1 6.3Z" fill="white"/>
<path d="M85.8 67.3C85.3 67.3 84.9 67.7 84.9 68.2C84.9 68.7 85.3 69.1 85.8 69.1C86.3 69.1 86.7 68.7 86.7 68.2C86.7 67.7 86.3 67.3 85.8 67.3Z" fill="white"/>
<path d="M25.6 84.7C26.7045 84.7 27.6 83.8046 27.6 82.7C27.6 81.5954 26.7045 80.7 25.6 80.7C24.4954 80.7 23.6 81.5954 23.6 82.7C23.6 83.8046 24.4954 84.7 25.6 84.7Z" fill="white"/>
<path d="M5.5 7.5C6.60457 7.5 7.5 6.60457 7.5 5.5C7.5 4.39543 6.60457 3.5 5.5 3.5C4.39543 3.5 3.5 4.39543 3.5 5.5C3.5 6.60457 4.39543 7.5 5.5 7.5Z" fill="white"/>
<path d="M86.7001 55.9C86.2001 55.9 85.8 56.3 85.8 56.8C85.8 57.3 86.2001 57.7 86.7001 57.7C87.2001 57.7 87.6001 57.3 87.6001 56.8C87.6001 56.3 87.2001 55.9 86.7001 55.9Z" fill="white"/>
<path d="M70.6 34.8C72.1 32.6 73.5 30.4 74.6 28.4C74.8 28.4 74.9 28.5 75.1 28.5C76.2 28.5 77.1 27.6 77.1 26.5C77.1 25.9 76.8 25.3 76.4 25C78.9 19.5 79.4 15.3 77.3 13.3C74.2 10.2 65.9 13 55.8 20C53.6 7.8 49.7 0 45.3 0C40.9 0 37 7.8 34.8 20C32.2 18.2 29.8 16.7 27.5 15.5C27.6 15.3 27.6 15.1 27.6 14.9C27.6 13.8 26.7 12.9 25.6 12.9C24.9 12.9 24.3 13.2 24 13.8C19 11.7 15.2 11.4 13.3 13.3C10.1 16.4 13 24.7 19.9 34.8C7.8 37 0 40.9 0 45.3C0 49.7 7.8 53.6 19.9 55.8C12.9 65.9 10.1 74.2 13.2 77.3C14.1 78.2 15.3 78.6 16.9 78.6C21 78.6 27.4 75.7 34.8 70.6C37 82.7 40.9 90.6 45.3 90.6C49.7 90.6 53.6 82.8 55.8 70.6C57.7 71.9 59.6 73.1 61.4 74.1C62.1 74.5 62.8 74.9 63.4 75.2C63.4 75.3 63.4 75.5 63.4 75.6C63.4 76.7 64.3 77.6 65.4 77.6C66 77.6 66.6 77.3 66.9 76.9C69.5 78 71.8 78.6 73.6 78.6C75.2 78.6 76.4 78.2 77.3 77.3C80.4 74.2 77.6 65.9 70.6 55.8C82.7 53.6 90.6 49.7 90.6 45.3C90.6 40.9 82.8 37 70.6 34.8ZM73.6 13C74.9 13 75.9 13.3 76.6 14C78.3 15.7 77.8 19.6 75.4 24.6C75.3 24.6 75.2 24.6 75 24.6C73.9 24.6 73 25.5 73 26.6C73 27.2 73.2 27.7 73.6 28C72.4 30.1 71 32.3 69.4 34.7C65.7 34.1 61.7 33.6 57.3 33.2C57.1 28.8 56.6 24.8 56 21.1C63.4 16 69.7 13 73.6 13ZM56.9 45.3C56.9 46.9 56.9 48.5 56.8 50.1C55.7 51.2 54.6 52.4 53.5 53.5C52.4 54.6 51.2 55.7 50.1 56.8C48.5 56.8 46.9 56.9 45.3 56.9C43.7 56.9 42.1 56.9 40.5 56.8C39.4 55.7 38.2 54.6 37.1 53.5C36 52.4 34.9 51.2 33.8 50.1C33.8 48.5 33.7 46.9 33.7 45.3C33.7 43.7 33.7 42.1 33.8 40.5C34.9 39.4 36 38.2 37.1 37.1C38.2 36 39.4 34.9 40.5 33.8C42.1 33.8 43.7 33.7 45.3 33.7C46.9 33.7 48.5 33.7 50.1 33.8C51.2 34.9 52.4 36 53.5 37.1C54.6 38.2 55.8 39.4 56.8 40.5C56.9 42.1 56.9 43.7 56.9 45.3ZM54.2 36.4C53.3 35.5 52.4 34.7 51.6 33.8C53.3 33.9 54.9 34 56.5 34.1C56.6 35.7 56.7 37.4 56.8 39C55.9 38.1 55.1 37.3 54.2 36.4ZM50.5 32.8C49 31.4 47.5 30.1 46.1 28.8C49.2 26.2 52.2 23.8 55.1 21.7C55.7 25.2 56.2 29 56.5 33C54.5 32.9 52.5 32.8 50.5 32.8ZM49 32.7C47.8 32.7 46.6 32.7 45.3 32.7C44.1 32.7 42.8 32.7 41.6 32.7C42.8 31.6 44.1 30.5 45.3 29.4C46.5 30.5 47.7 31.6 49 32.7ZM40.1 32.8C38.1 32.9 36.1 33 34.2 33.1C34.5 29.1 35 25.3 35.6 21.8C38.5 23.9 41.5 26.2 44.6 28.8C43.1 30.1 41.6 31.4 40.1 32.8ZM39 33.8C38.1 34.6 37.3 35.5 36.4 36.4C35.5 37.3 34.7 38.1 33.8 39C33.9 37.3 34 35.7 34.1 34.1C35.7 34 37.3 33.9 39 33.8ZM32.8 40.1C31.4 41.6 30.1 43.1 28.8 44.5C26.2 41.4 23.8 38.4 21.8 35.5C25.3 34.9 29.1 34.4 33.1 34.1C32.9 36.1 32.8 38.1 32.8 40.1ZM32.7 41.6C32.7 42.8 32.7 44 32.7 45.3C32.7 46.5 32.7 47.8 32.7 49C31.6 47.8 30.5 46.5 29.4 45.3C30.5 44.1 31.6 42.8 32.7 41.6ZM32.8 50.5C32.9 52.5 33 54.5 33.1 56.4C29.1 56.1 25.3 55.6 21.8 55C23.9 52.1 26.2 49.1 28.8 46C30 47.5 31.4 49 32.8 50.5ZM33.8 51.6C34.6 52.5 35.5 53.3 36.4 54.2C37.3 55.1 38.2 55.9 39 56.8C37.3 56.7 35.7 56.6 34.1 56.5C34 54.9 33.9 53.3 33.8 51.6ZM40.1 57.8C41.6 59.2 43 60.5 44.5 61.8C41.4 64.4 38.4 66.8 35.5 68.8C34.9 65.3 34.4 61.5 34.1 57.5C36.1 57.7 38.1 57.8 40.1 57.8ZM41.6 57.9C42.8 57.9 44 57.9 45.3 57.9C46.5 57.9 47.8 57.9 49 57.9C47.8 59 46.5 60.1 45.3 61.2C44.1 60.1 42.8 59 41.6 57.9ZM50.5 57.8C52.5 57.7 54.5 57.6 56.5 57.5C56.2 61.5 55.7 65.4 55.1 68.9C52.1 66.8 49.1 64.4 46.1 61.8C47.5 60.6 49 59.2 50.5 57.8ZM51.6 56.8C52.5 56 53.4 55.1 54.2 54.2C55.1 53.3 55.9 52.4 56.8 51.6C56.7 53.3 56.6 54.9 56.5 56.5C54.9 56.6 53.2 56.7 51.6 56.8ZM57.8 50.5C59.2 49 60.5 47.6 61.8 46.1C64.4 49.2 66.8 52.2 68.8 55.1C65.3 55.7 61.5 56.2 57.5 56.5C57.7 54.5 57.8 52.5 57.8 50.5ZM57.9 49C57.9 47.8 57.9 46.6 57.9 45.3C57.9 44.1 57.9 42.8 57.9 41.6C59 42.8 60.1 44 61.2 45.3C60.1 46.5 59 47.7 57.9 49ZM57.8 40.1C57.7 38.1 57.6 36.1 57.5 34.2C61.5 34.5 65.3 35 68.8 35.6C66.7 38.5 64.4 41.5 61.8 44.6C60.5 43.1 59.2 41.6 57.8 40.1ZM45.3 1C49.2 1 52.7 8.9 54.9 20.6C51.8 22.8 48.6 25.3 45.3 28.1C42 25.3 38.8 22.8 35.7 20.6C37.8 8.9 41.4 1 45.3 1ZM14 14C15.6 12.4 19.1 12.8 23.7 14.7C23.7 14.8 23.7 14.8 23.7 14.9C23.7 16 24.6 16.9 25.7 16.9C26.2 16.9 26.7 16.7 27.1 16.4C29.5 17.7 32 19.3 34.7 21.1C34 24.8 33.5 28.8 33.1 33.1C28.8 33.4 24.7 33.9 21 34.6C14.3 24.8 11.2 16.7 14 14ZM1 45.3C1 41.4 8.9 37.8 20.6 35.7C22.8 38.8 25.3 42 28.1 45.3C25.3 48.6 22.7 51.8 20.6 54.9C8.9 52.7 1 49.2 1 45.3ZM14 76.6C11.2 73.9 14.3 65.8 21.1 56C24.8 56.6 28.8 57.1 33.2 57.5C33.5 61.8 34 65.9 34.7 69.6C24.8 76.3 16.7 79.4 14 76.6ZM45.3 89.6C41.4 89.6 37.8 81.7 35.7 70C38.8 67.8 42 65.3 45.3 62.5C48.5 65.3 51.8 67.8 54.9 70C52.8 81.7 49.2 89.6 45.3 89.6ZM76.6 76.6C75.1 78.1 71.8 77.9 67.4 76C67.4 75.9 67.4 75.8 67.4 75.7C67.4 74.6 66.5 73.7 65.4 73.7C64.8 73.7 64.3 74 63.9 74.4C63.2 74.1 62.6 73.7 61.9 73.3C60 72.2 58 71 56 69.5C56.6 65.8 57.1 61.7 57.5 57.4C61.8 57.1 65.9 56.6 69.6 55.9C76.3 65.8 79.4 73.9 76.6 76.6ZM70 54.9C67.8 51.8 65.3 48.6 62.5 45.3C65.3 42 67.9 38.8 70 35.7C81.7 37.8 89.6 41.3 89.6 45.3C89.6 49.2 81.7 52.8 70 54.9Z" fill="white"/>
<path d="M45.1 48.8C47.3091 48.8 49.1 47.0091 49.1 44.8C49.1 42.5908 47.3091 40.8 45.1 40.8C42.8908 40.8 41.1 42.5908 41.1 44.8C41.1 47.0091 42.8908 48.8 45.1 48.8Z" fill="white"/>
</svg>
