<svg width="42" height="52" viewBox="0 0 42 52" fill="none" xmlns="http://www.w3.org/2000/svg">
<g clip-path="url(#clip0_41_30)">
<path d="M39.7687 16.835L40.0969 15.535L33.7969 13.91L33.4688 15.21L39.7687 16.835Z" fill="white"/>
<path d="M15.0938 19.045C15.0938 19.37 15.2906 19.565 15.6187 19.565H18.5063C18.7688 19.565 19.0312 19.37 19.0312 19.045V18.07L15.0938 17.03V19.045Z" fill="white"/>
<path d="M31.5656 17.355L33.2719 11.05L24.4781 8.71002L22.7719 15.015L31.5656 17.355ZM25.0687 13.13L30.3187 14.43C30.6469 14.495 30.9094 14.885 30.7781 15.21C30.7125 15.535 30.45 15.73 30.1219 15.73C30.0562 15.73 24.7406 14.43 24.7406 14.43C24.4125 14.365 24.15 13.975 24.2812 13.65C24.4125 13.195 24.7406 13 25.0687 13.13Z" fill="white"/>
<path d="M3.41245 11.18L3.0187 12.48L20.8031 17.225L23.8875 5.84998L6.10308 1.16998L5.77495 2.46998C5.70933 2.66498 5.51245 2.85998 5.31558 2.92498C3.67495 3.44498 2.4937 4.61498 2.03433 6.17498C1.64058 7.73498 2.09995 9.48998 3.21558 10.53C3.41245 10.725 3.47808 10.92 3.41245 11.18ZM15.0937 5.52498C15.225 5.19998 15.5531 5.00498 15.8812 5.06998L20.4093 6.36998C21.1312 6.62998 21.5906 7.27998 21.4593 8.05998L20.9343 9.94498C20.8031 10.595 20.2125 10.4 20.1468 10.4C19.8187 10.27 19.6218 9.94498 19.6875 9.61998L20.2125 7.66998L15.4875 6.30498C15.225 6.23998 15.0281 5.91498 15.0937 5.52498ZM11.1562 4.41998C11.2875 4.09498 11.6156 3.89998 12.0093 3.96498L13.3218 4.35498C13.65 4.48498 13.8468 4.87498 13.7812 5.19998C13.7156 5.45998 13.4531 5.65498 13.125 5.65498C13.0593 5.65498 11.6156 5.26498 11.6156 5.26498C11.2875 5.13498 11.0906 4.80998 11.1562 4.41998ZM4.92183 4.41998C5.24995 4.22498 5.6437 4.28998 5.84058 4.61498C5.97183 4.93998 5.9062 5.32998 5.57808 5.52498C4.98745 5.84998 4.5937 6.49998 4.5937 7.21498C4.5937 7.53998 4.26558 7.86498 3.93745 7.86498C3.60933 7.86498 3.2812 7.53998 3.2812 7.21498C3.2812 6.04498 3.93745 5.00498 4.92183 4.41998Z" fill="white"/>
<path d="M23.625 39.065H22.8375L19.2281 20.67C18.9 20.93 17.9156 20.865 17.9156 20.865L21.4594 39.065H17.7188V20.865H16.4062V39.065H12.6L16.1438 20.865C16.1438 20.865 15.0938 20.93 14.8313 20.67L11.2219 39.065H1.3125C0.91875 39.065 0.65625 39.325 0.65625 39.715C0.65625 40.105 0.91875 40.365 1.3125 40.365H23.625C24.0188 40.365 24.2812 40.105 24.2812 39.715C24.2812 39.325 24.0188 39.065 23.625 39.065Z" fill="white"/>
<path d="M35.4375 39.065H26.25C25.8562 39.065 25.5938 39.325 25.5938 39.715C25.5938 40.105 25.8562 40.365 26.25 40.365H35.4375C35.8313 40.365 36.0938 40.105 36.0938 39.715C36.0938 39.325 35.8313 39.065 35.4375 39.065Z" fill="white"/>
<path d="M40.6875 39.065H38.0625C37.6687 39.065 37.4062 39.325 37.4062 39.715C37.4062 40.105 37.6687 40.365 38.0625 40.365H40.6875C41.0813 40.365 41.3438 40.105 41.3438 39.715C41.3438 39.325 41.0813 39.065 40.6875 39.065Z" fill="white"/>
</g>
<defs>
<clipPath id="clip0_41_30">
<rect width="42" height="52" fill="white"/>
</clipPath>
</defs>
</svg>
